<svg width="50" height="50" viewBox="0 0 50 50" fill="none" xmlns="http://www.w3.org/2000/svg">
<circle opacity="0.1" cx="24.7563" cy="24.7563" r="24.7563" fill="white"/>
<path d="M24.7566 30.5875C26.3015 30.5875 27.7831 29.9738 28.8755 28.8814C29.9679 27.789 30.5816 26.3074 30.5816 24.7625C30.5816 23.2176 29.9679 21.736 28.8755 20.6436C27.7831 19.5512 26.3015 18.9375 24.7566 18.9375C23.2118 18.9375 21.7301 19.5512 20.6377 20.6436C19.5453 21.736 18.9316 23.2176 18.9316 24.7625C18.9316 26.3074 19.5453 27.789 20.6377 28.8814C21.7301 29.9738 23.2118 30.5875 24.7566 30.5875Z" stroke="white" stroke-width="1.5" stroke-linecap="round" stroke-linejoin="round"/>
<path d="M11.6504 30.5875V18.9375C11.6504 17.0064 12.4175 15.1544 13.783 13.7889C15.1485 12.4234 17.0005 11.6563 18.9316 11.6562H30.5816C32.5127 11.6562 34.3648 12.4234 35.7303 13.7889C37.0958 15.1544 37.8629 17.0064 37.8629 18.9375V30.5875C37.8629 32.5186 37.0958 34.3706 35.7303 35.7361C34.3648 37.1016 32.5127 37.8687 30.5816 37.8687H18.9316C17.0005 37.8687 15.1485 37.1016 13.783 35.7361C12.4175 34.3706 11.6504 32.5186 11.6504 30.5875Z" stroke="white" stroke-width="1.5"/>
<path d="M32.7656 16.7665L32.7806 16.75" stroke="white" stroke-width="1.5" stroke-linecap="round" stroke-linejoin="round"/>
</svg>
