<svg width="50" height="50" viewBox="0 0 50 50" fill="none" xmlns="http://www.w3.org/2000/svg">
<circle opacity="0.1" cx="24.7563" cy="24.7563" r="24.7563" fill="#D3D3D3"/>
<path d="M27.6691 24.9047L22.5723 27.8172V21.9922L27.6691 24.9047Z" fill="white" stroke="white" stroke-width="1.5" stroke-linecap="round" stroke-linejoin="round"/>
<path d="M10.1953 25.9329V23.8708C10.1953 19.655 10.1953 17.5464 11.5132 16.1906C12.8326 14.8334 14.9092 14.7751 19.061 14.6572C21.0269 14.6018 23.0365 14.5625 24.7578 14.5625C26.4791 14.5625 28.4873 14.6018 30.4547 14.6572C34.6064 14.7751 36.683 14.8334 38.0009 16.1906C39.3189 17.5478 39.3203 19.6565 39.3203 23.8708V25.9314C39.3203 30.1487 39.3203 32.2559 38.0024 33.6132C36.683 34.9689 34.6079 35.0286 30.4547 35.1451C28.4887 35.2019 26.4791 35.2413 24.7578 35.2413C23.0365 35.2413 21.0284 35.2019 19.061 35.1451C14.9092 35.0286 12.8326 34.9704 11.5132 33.6132C10.1939 32.2559 10.1953 30.1473 10.1953 25.9329Z" stroke="white" stroke-width="1.5"/>
</svg>
