<svg width="460" height="260" viewBox="0 0 460 260" fill="none" xmlns="http://www.w3.org/2000/svg">
<path d="M30.0969 128.098C30.5861 114.511 35.994 102.178 44.595 92.8253C42.0028 96.4741 40.4788 100.935 40.4788 105.751C40.4788 118.041 50.4035 128.013 62.678 128.098H30.0969ZM73.7629 148.311C73.7629 158.473 68.8195 168.001 60.51 173.857L56.1174 176.951C41.1869 167.669 31.0208 151.451 30.1252 132.803H73.7629V148.311ZM80.4846 105.751C80.4846 115.495 72.5827 123.395 62.8352 123.395C53.0877 123.395 45.1858 115.495 45.1858 105.751C45.1859 96.0069 53.0878 88.1075 62.8352 88.1075C72.5826 88.1075 80.4845 96.0069 80.4846 105.751ZM62.9924 128.098C75.2669 128.013 85.1916 118.041 85.1917 105.751C85.1915 93.4084 75.182 83.4034 62.8352 83.4034C58.7006 83.4034 54.8283 84.5254 51.5061 86.4815C60.8222 79.2833 72.5072 75.0002 85.1926 75.0001V128.098H62.9924ZM85.1926 185.231C76.3857 185.23 68.0606 183.167 60.676 179.496L63.2209 177.703C72.7814 170.967 78.4699 160.003 78.47 148.311V132.803H85.1926V185.231ZM120.156 129.442C120.156 138.704 113.221 145.91 105.028 145.91C96.8339 145.91 89.8987 138.704 89.8987 129.442V75.1993C101.337 76.1658 111.781 80.6218 120.159 87.5001V129.442H120.156ZM120.159 172.73C111.781 179.608 101.337 184.065 89.8987 185.031V143.133C93.5105 147.688 98.9052 150.615 105.028 150.615C111.152 150.615 116.548 147.686 120.159 143.129V172.73ZM140.326 130.115C140.326 144.982 134.437 158.474 124.865 168.388V91.8428C134.437 101.757 140.326 115.248 140.326 130.115Z" fill="#EEEEEE"/>
<path d="M87.5527 75.0352L89.8975 75.2003L89.9092 185.03L87.5654 185.219L85.1846 185.235V132.806H78.4707V149.546L78.2822 151.953L77.9785 154.159L77.5518 156.393L76.9609 158.556L76.1729 160.97L75.125 163.466L74.0117 165.683L72.6152 167.961L71.4551 169.656L70.0098 171.463L68.8193 172.835L67.2959 174.398L65.707 175.775L64.1504 177.019L60.7041 179.499L58.4463 178.397L56.125 176.94L59.7334 174.398L61.5479 173.113L63.2051 171.742L64.5547 170.464L65.791 169.16C67.3546 167.413 68.7129 165.491 69.8398 163.435L70.4883 162.252L70.5586 162.107C71.2525 160.687 71.8402 159.216 72.3164 157.708L72.8916 155.621L73.3047 153.607L73.5947 151.512L73.7578 149.546V132.806H30.126L30 130.482L30.0977 128.093H85.1846V75.0001L87.5527 75.0352ZM62.8555 83.4366C75.1869 83.4366 85.1836 93.4333 85.1836 105.765C85.1835 118.096 75.1868 128.093 62.8555 128.093C50.5243 128.093 40.5274 118.096 40.5273 105.765C40.5273 93.4334 50.5242 83.4367 62.8555 83.4366ZM62.8555 88.1221C53.1121 88.1223 45.2139 96.0213 45.2139 105.765C45.214 115.508 53.1121 123.407 62.8555 123.407C72.5989 123.407 80.498 115.508 80.498 105.765C80.498 96.0212 72.599 88.1221 62.8555 88.1221Z" fill="#B90E0A"/>
<path d="M174.882 128.098C175.371 114.511 180.779 102.178 189.38 92.8252C186.788 96.4741 185.264 100.935 185.264 105.751C185.264 118.041 195.189 128.013 207.463 128.098H174.882ZM218.548 148.311C218.548 158.473 213.605 168.001 205.295 173.856L200.903 176.951C185.972 167.669 175.806 151.451 174.91 132.803H218.548V148.311ZM225.27 105.751C225.27 115.495 217.368 123.394 207.62 123.395C197.873 123.394 189.971 115.495 189.971 105.751C189.971 96.0068 197.873 88.1075 207.62 88.1074C217.368 88.1075 225.27 96.0069 225.27 105.751ZM207.778 128.098C220.052 128.013 229.976 118.041 229.976 105.751C229.976 93.4084 219.967 83.4034 207.62 83.4033C203.486 83.4033 199.613 84.5253 196.291 86.4814C205.607 79.2832 217.292 75.0002 229.978 75V128.098H207.778ZM229.978 185.23C221.171 185.23 212.846 183.167 205.461 179.496L208.006 177.703C217.567 170.967 223.254 160.003 223.254 148.311V132.803H229.978V185.23ZM264.941 129.442C264.941 138.704 258.007 145.91 249.813 145.91C241.619 145.91 234.684 138.704 234.684 129.442V75.1992C246.122 76.1657 256.565 80.6219 264.944 87.5V129.442H264.941ZM264.944 172.729C256.565 179.608 246.122 184.065 234.684 185.031V143.133C238.296 147.688 243.69 150.615 249.813 150.615C255.937 150.615 261.332 147.686 264.944 143.129V172.729ZM285.112 130.115C285.112 144.982 279.222 158.474 269.65 168.388V91.8428C279.222 101.757 285.112 115.248 285.112 130.115Z" fill="#EEEEEE"/>
<path d="M232.34 75.0342L234.685 75.2002L234.697 185.03L232.353 185.219L229.972 185.235V75L232.34 75.0342ZM264.931 87.5098C266.642 88.7743 268.23 90.2285 269.644 91.8184L269.657 168.372C268.337 169.804 266.912 171.136 265.394 172.356L264.931 172.729V143.27L264.597 143.628C262.666 145.706 260.409 147.455 257.916 148.807C255.468 149.951 252.804 150.56 250.103 150.594L249.815 150.597C247.204 150.597 244.618 150.078 242.208 149.072L241.848 148.922C239.228 147.55 236.878 145.715 234.911 143.507L234.698 143.268V130.119L234.92 132.012C235.26 134.904 236.389 137.648 238.183 139.942L239.813 141.671C240.465 142.362 241.192 142.979 241.981 143.508C242.868 144.103 243.827 144.583 244.834 144.938L246.542 145.541C248.692 146.042 250.932 146.017 253.07 145.468L254.748 145.037C257.314 144.005 259.571 142.328 261.3 140.17L261.362 140.094C263.448 137.372 264.679 134.091 264.898 130.669L264.931 130.149V87.5098Z" fill="#B90E0A"/>
<path d="M319.763 128.098C320.253 114.511 325.661 102.178 334.261 92.8252C331.669 96.4741 330.145 100.935 330.145 105.751C330.145 118.041 340.07 128.013 352.344 128.098H319.763ZM363.429 148.311C363.429 158.473 358.486 168.001 350.177 173.856L345.784 176.951C330.853 167.669 320.687 151.451 319.792 132.803H363.429V148.311ZM370.151 105.751C370.151 115.495 362.249 123.394 352.502 123.395C342.754 123.394 334.852 115.495 334.852 105.751C334.852 96.0068 342.754 88.1075 352.502 88.1074C362.249 88.1075 370.151 96.0068 370.151 105.751ZM352.659 128.098C364.933 128.013 374.858 118.041 374.858 105.751C374.858 93.4083 364.848 83.4034 352.502 83.4033C348.367 83.4033 344.495 84.5253 341.173 86.4814C350.489 79.2832 362.174 75.0002 374.859 75V128.098H352.659ZM374.859 185.23C366.052 185.23 357.727 183.167 350.343 179.496L352.887 177.703C362.448 170.967 368.136 160.003 368.136 148.311V132.803H374.859V185.23ZM409.822 129.442C409.822 138.704 402.888 145.91 394.694 145.91C386.5 145.91 379.565 138.704 379.565 129.442V75.1992C391.003 76.1657 401.447 80.6217 409.826 87.5V129.442H409.822ZM409.826 172.729C401.447 179.608 391.003 184.065 379.565 185.031V143.133C383.177 147.688 388.572 150.615 394.694 150.615C400.818 150.615 406.214 147.686 409.826 143.129V172.729ZM429.993 130.115C429.993 144.982 424.103 158.474 414.531 168.388V91.8428C424.104 101.757 429.993 115.248 429.993 130.115Z" fill="#EEEEEE"/>
<path d="M409.813 87.5122C411.524 88.7768 413.112 90.2309 414.526 91.8208L414.537 168.375C413.218 169.807 411.792 171.139 410.275 172.359L409.813 172.73V87.5122ZM414.538 91.8491C424.111 101.763 430 115.255 430 130.123C430 144.989 424.111 158.48 414.538 168.394V161.7L415.508 160.453C417.529 157.854 419.288 155.063 420.76 152.119L420.911 151.815C421.891 149.856 422.728 147.829 423.417 145.75C424.583 142.231 425.318 138.583 425.603 134.887L425.644 134.346C425.861 131.535 425.837 128.71 425.571 125.904C425.306 123.118 424.804 120.36 424.072 117.659L423.684 116.229C422.984 113.648 422.077 111.125 420.974 108.689C419.526 105.493 417.745 102.456 415.662 99.6333L414.538 98.1099V91.8491Z" fill="#B90E0A"/>
<path d="M162 129.5L155.25 123.005V135.995L162 129.5Z" fill="#B90E0A"/>
<path d="M307 129.5L300.25 123.005V135.995L307 129.5Z" fill="#B90E0A"/>
</svg>
