<svg width="460" height="260" viewBox="0 0 460 260" fill="none" xmlns="http://www.w3.org/2000/svg">
<path d="M131.246 83.9922H124.953L119.046 63.5303H118.789L112.839 83.9922H106.547L97.6855 53H104.706L109.929 74.6602H110.186L115.878 53H121.914L127.607 74.7031H127.864L133.087 53H140.106L131.246 83.9922ZM145.646 74.5127C145.646 78.0228 147.743 80.206 150.996 80.2061C153.136 80.2061 154.677 79.2642 155.319 77.8516H161.355C160.457 82.1321 156.604 84.9579 150.868 84.958C143.762 84.958 139.396 80.3343 139.396 72.9717C139.396 65.7804 143.805 60.9434 150.611 60.9434C156.732 60.9435 161.526 64.7961 161.526 72.7148V74.5127H145.646ZM155.533 70.5322C155.533 67.707 153.564 65.6953 150.739 65.6953C147.828 65.6953 145.753 67.8569 145.646 70.5322H155.533ZM149.332 127.601C150.019 108.512 157.618 91.1845 169.702 78.0439C166.06 83.1705 163.919 89.4375 163.919 96.2041C163.919 113.472 177.862 127.482 195.107 127.601H149.332ZM210.682 155.999C210.682 170.277 203.737 183.665 192.062 191.891L185.891 196.238C164.914 183.197 150.629 160.411 149.371 134.211H210.682V155.999ZM220.125 96.2041C220.125 109.895 209.023 120.993 195.328 120.993C181.633 120.993 170.531 109.894 170.531 96.2041C170.531 82.514 181.633 71.4153 195.328 71.415C209.023 71.415 220.125 82.5138 220.125 96.2041ZM195.549 127.601C212.794 127.482 226.738 113.472 226.738 96.2041C226.738 78.863 212.675 64.8057 195.328 64.8057C189.519 64.8057 184.08 66.3828 179.412 69.1309C192.501 59.0177 208.918 53.0002 226.74 53V127.601H195.549ZM226.74 207.87C214.367 207.87 202.67 204.971 192.295 199.813L195.871 197.294C209.303 187.83 217.294 172.427 217.294 155.999V134.211H226.74V207.87ZM275.862 129.49C275.862 142.503 266.119 152.627 254.607 152.627C243.096 152.627 233.353 142.503 233.353 129.49V53.2793C249.422 54.6372 264.095 60.8987 275.867 70.5625V129.49H275.862ZM275.867 190.308C264.095 199.972 249.423 206.233 233.353 207.591V148.724C238.427 155.123 246.006 159.236 254.607 159.236C263.211 159.236 270.793 155.122 275.867 148.72V190.308ZM304.202 130.436C304.202 151.323 295.927 170.278 282.479 184.206V76.6631C295.928 90.5917 304.202 109.548 304.202 130.436ZM323.467 207.096V186.806H323.21L315.12 206.967H310.84L302.749 186.72H302.492V207.096H296.242V176.104H304.204L312.809 197.122H313.151L321.755 176.104H329.717V207.096H323.467ZM361 191.557C361 201.274 355.307 207.096 345.847 207.096H334.931V176.104H345.975C355.306 176.104 361 181.925 361 191.557ZM354.579 191.557C354.579 184.665 351.497 181.626 345.633 181.626H341.352V201.573H345.59C351.497 201.573 354.579 198.491 354.579 191.557Z" fill="#B90E0A"/>
</svg>
