<svg width="151" height="122" viewBox="0 0 151 122" fill="none" xmlns="http://www.w3.org/2000/svg">
<path d="M147.213 121.274C144.819 121.274 143.348 119.717 143.348 117.236C143.348 114.813 144.833 113.184 147.126 113.184C149.188 113.184 150.803 114.482 150.803 117.15V117.755H145.453C145.453 118.938 146.16 119.673 147.256 119.673C147.977 119.673 148.496 119.356 148.712 118.88H150.746C150.443 120.322 149.145 121.274 147.213 121.274ZM145.453 116.414H148.784C148.784 115.462 148.121 114.785 147.169 114.785C146.189 114.785 145.489 115.513 145.453 116.414Z" fill="white"/>
<path d="M138.863 121.274C136.469 121.274 135.027 119.616 135.027 117.222C135.027 114.828 136.483 113.184 138.863 113.184C140.882 113.184 142.252 114.366 142.338 116.155H140.334C140.204 115.376 139.699 114.842 138.892 114.842C137.868 114.842 137.19 115.708 137.19 117.193C137.19 118.707 137.853 119.572 138.892 119.572C139.641 119.572 140.204 119.111 140.334 118.274H142.338C142.237 120.048 140.939 121.274 138.863 121.274Z" fill="white"/>
<path d="M128.653 116.587V121.115H126.518V113.285H128.552V114.655H128.638C128.999 113.746 129.835 113.184 130.989 113.184C132.618 113.184 133.7 114.294 133.686 116.126V121.115H131.566V116.501C131.566 115.535 131.032 114.958 130.153 114.958C129.258 114.958 128.653 115.549 128.653 116.587Z" fill="white"/>
<path d="M121.587 121.274C119.193 121.274 117.722 119.717 117.722 117.236C117.722 114.813 119.207 113.184 121.5 113.184C123.562 113.184 125.177 114.482 125.177 117.15V117.755H119.827C119.827 118.938 120.534 119.673 121.63 119.673C122.351 119.673 122.87 119.356 123.086 118.88H125.12C124.817 120.322 123.519 121.274 121.587 121.274ZM119.827 116.414H123.158C123.158 115.462 122.495 114.785 121.543 114.785C120.563 114.785 119.863 115.513 119.827 116.414Z" fill="white"/>
<path d="M112.53 121.12V113.289H114.592V114.645H114.679C114.967 113.679 115.688 113.174 116.568 113.174C116.784 113.174 117.058 113.203 117.245 113.246V115.149C117.044 115.092 116.64 115.034 116.337 115.034C115.371 115.034 114.664 115.712 114.664 116.664V121.12H112.53Z" fill="white"/>
<path d="M107.598 121.274C105.204 121.274 103.733 119.717 103.733 117.236C103.733 114.813 105.219 113.184 107.511 113.184C109.574 113.184 111.189 114.482 111.189 117.15V117.755H105.839C105.839 118.938 106.545 119.673 107.641 119.673C108.362 119.673 108.881 119.356 109.098 118.88H111.131C110.828 120.322 109.53 121.274 107.598 121.274ZM105.839 116.414H109.17C109.17 115.462 108.506 114.785 107.555 114.785C106.574 114.785 105.875 115.513 105.839 116.414Z" fill="white"/>
<path d="M103.085 113.284V114.885H101.528V121.115H99.3936V114.885H98.2832V113.284H99.3936V112.693C99.3936 111.049 100.389 110.184 101.96 110.184C102.451 110.184 102.855 110.227 103.229 110.314V111.929C102.927 111.9 102.696 111.886 102.581 111.886C101.888 111.886 101.528 112.16 101.528 112.809V113.284H103.085Z" fill="white"/>
<path d="M97.6631 113.284V114.885H96.1057V121.115H93.9714V114.885H92.8611V113.284H93.9714V112.693C93.9714 111.049 94.9665 110.184 96.5383 110.184C97.0286 110.184 97.4324 110.227 97.8073 110.314V111.929C97.5045 111.9 97.2738 111.886 97.1584 111.886C96.4662 111.886 96.1057 112.16 96.1057 112.809V113.284H97.6631Z" fill="white"/>
<path d="M89.7026 121.12V113.289H91.8369V121.12H89.7026ZM90.7697 112.265C90.1208 112.265 89.6017 111.775 89.6017 111.184C89.6017 110.578 90.1208 110.088 90.7697 110.088C91.4042 110.088 91.9234 110.578 91.9234 111.184C91.9234 111.775 91.4042 112.265 90.7697 112.265Z" fill="white"/>
<path d="M83.0695 121.12H79.3922V110.68H83.1128C86.2565 110.68 88.1744 112.641 88.1744 115.886C88.1744 119.159 86.2565 121.12 83.0695 121.12ZM81.5553 119.26H82.983C84.973 119.26 86.0113 118.222 86.0113 115.886C86.0113 113.564 84.973 112.54 82.9974 112.54H81.5553V119.26Z" fill="white"/>
<path d="M67.3362 118.923C67.3362 117.178 68.7494 116.602 70.2492 116.515C70.8116 116.479 71.8643 116.429 72.196 116.414V115.78C72.1816 115.131 71.7345 114.741 70.9414 114.741C70.2203 114.741 69.7589 115.073 69.6435 115.607H67.6102C67.74 114.251 68.9225 113.184 70.9991 113.184C72.7007 113.184 74.3158 113.948 74.3158 115.837V121.115H72.2969V120.034H72.2392C71.8499 120.755 71.1144 121.26 69.9464 121.26C68.4466 121.26 67.3362 120.481 67.3362 118.923ZM69.3839 118.866C69.3839 119.471 69.8743 119.789 70.552 119.789C71.5182 119.789 72.2104 119.14 72.196 118.318V117.741C71.8715 117.755 70.963 117.806 70.5953 117.842C69.8598 117.914 69.3839 118.26 69.3839 118.866Z" fill="white"/>
<path d="M59.3751 121.274C56.9813 121.274 55.5104 119.717 55.5104 117.236C55.5104 114.813 56.9957 113.184 59.2886 113.184C61.3507 113.184 62.9659 114.482 62.9659 117.15V117.755H57.6158C57.6158 118.938 58.3224 119.673 59.4184 119.673C60.1394 119.673 60.6586 119.356 60.8749 118.88H62.9082C62.6053 120.322 61.3075 121.274 59.3751 121.274ZM57.6158 116.414H60.947C60.947 115.462 60.2836 114.785 59.3319 114.785C58.3512 114.785 57.6518 115.513 57.6158 116.414Z" fill="white"/>
<path d="M47.9254 121.12V110.68H50.0596V116.289H50.175L52.713 113.29H55.1646L52.2516 116.679L55.3232 121.12H52.814L50.6653 117.933L50.0596 118.611V121.12H47.9254Z" fill="white"/>
<path d="M39.3159 118.923C39.3159 117.178 40.7292 116.602 42.2289 116.515C42.7913 116.479 43.844 116.429 44.1757 116.414V115.78C44.1613 115.131 43.7142 114.741 42.9211 114.741C42.2001 114.741 41.7386 115.073 41.6232 115.607H39.5899C39.7197 114.251 40.9022 113.184 42.9788 113.184C44.6804 113.184 46.2955 113.948 46.2955 115.837V121.115H44.2766V120.034H44.219C43.8296 120.755 43.0941 121.26 41.9261 121.26C40.4263 121.26 39.3159 120.481 39.3159 118.923ZM41.3637 118.866C41.3637 119.471 41.854 119.789 42.5317 119.789C43.4979 119.789 44.1901 119.14 44.1757 118.318V117.741C43.8512 117.755 42.9427 117.806 42.575 117.842C41.8396 117.914 41.3637 118.26 41.3637 118.866Z" fill="white"/>
<path d="M26.6983 110.68H29.3806L32.2791 117.76H32.3945L35.2931 110.68H37.9753V121.12H35.8699V114.285H35.7834L33.0579 121.077H31.6158L28.8903 114.256H28.8038V121.12H26.6983V110.68Z" fill="white"/>
<path d="M18.3198 121.274C15.926 121.274 14.4551 119.717 14.4551 117.236C14.4551 114.813 15.9404 113.184 18.2333 113.184C20.2955 113.184 21.9106 114.482 21.9106 117.15V117.755H16.5605C16.5605 118.938 17.2671 119.673 18.3631 119.673C19.0841 119.673 19.6033 119.356 19.8196 118.88H21.8529C21.5501 120.322 20.2522 121.274 18.3198 121.274ZM16.5605 116.414H19.8917C19.8917 115.462 19.2284 114.785 18.2766 114.785C17.296 114.785 16.5966 115.513 16.5605 116.414Z" fill="white"/>
<path d="M3.25046 121.12L0.265381 110.68H2.63037L4.38969 117.977H4.47622L6.39417 110.68H8.42748L10.3454 117.991H10.432L12.1913 110.68H14.5563L11.5712 121.12H9.45135L7.4613 114.227H7.37477L5.3703 121.12H3.25046Z" fill="white"/>
<path d="M18.7383 17.3018H15.2246L11.9268 5.87891H11.7832L8.46094 17.3018H4.94727L0 0L3.91992 0L6.83594 12.0928H6.97949L10.1582 0L13.5273 0L16.7061 12.1162H16.8496L19.7656 0L23.6855 0L18.7383 17.3018ZM26.7744 12.0068C26.7744 13.9663 27.9455 15.1846 29.7617 15.1846C30.9565 15.1846 31.8173 14.6596 32.1758 13.8711H35.5449C35.0429 16.2604 32.8924 17.8377 29.6904 17.8379C25.7234 17.8379 23.2852 15.2566 23.2852 11.1465C23.2852 7.13202 25.7471 4.43164 29.5469 4.43164C32.9641 4.43175 35.6405 6.58248 35.6406 11.0029V12.0068H26.7744ZM32.2949 9.78418C32.2948 8.20723 31.1953 7.08398 29.6182 7.08398C27.9933 7.08405 26.8343 8.29088 26.7744 9.78418H32.2949ZM28.8301 41.6416C29.2137 30.9864 33.4554 21.3145 40.2012 13.9795C38.1682 16.8411 36.9737 20.3393 36.9736 24.1162C36.9736 33.7548 44.7569 41.5751 54.3838 41.6416H28.8301ZM63.0781 57.4932C63.0781 65.4633 59.2017 72.9365 52.6846 77.5283L49.2383 79.9551C37.5281 72.6753 29.5549 59.956 28.8525 45.3311H63.0781V57.4932ZM68.3506 24.1162C68.3506 31.758 62.1528 37.9529 54.5078 37.9531C46.8627 37.9531 40.665 31.7582 40.665 24.1162C40.6652 16.4744 46.8628 10.2793 54.5078 10.2793C62.1527 10.2795 68.3504 16.4745 68.3506 24.1162ZM54.6309 41.6416C64.2579 41.5753 72.042 33.7549 72.042 24.1162C72.0418 14.4367 64.1914 6.59006 54.5078 6.58984C51.2651 6.58985 48.2277 7.4699 45.6221 9.00391C52.9288 3.3588 62.0937 0.000130861 72.043 0V41.6416H54.6309ZM72.043 86.4473C65.1356 86.4472 58.6062 84.8292 52.8145 81.9502L54.8105 80.5439C62.3088 75.2609 66.7695 66.6631 66.7695 57.4932V45.3311H72.043V86.4473ZM99.4648 42.6963C99.4648 49.9599 94.0261 55.6113 87.5996 55.6113C81.1731 55.6113 75.7344 49.9599 75.7344 42.6963V0.15625C84.7051 0.914293 92.8963 4.4095 99.4678 9.80371V42.6963H99.4648ZM99.4678 76.6445C92.8962 82.0389 84.7053 85.5339 75.7344 86.292V53.4326C78.5672 57.005 82.7978 59.3007 87.5996 59.3008C92.4027 59.3008 96.635 57.0036 99.4678 53.4297V76.6445ZM115.285 43.2236C115.285 54.8831 110.666 65.4644 103.158 73.2393V13.209C110.666 20.9838 115.285 31.5643 115.285 43.2236ZM126.05 86.0195V74.6924H125.906L121.39 85.9482H119L114.482 74.6455H114.339V86.0195H110.85V68.7188H115.295L120.099 80.4521H120.29L125.094 68.7188H129.539V86.0195H126.05ZM147 77.3457C147 82.7701 143.821 86.0195 138.539 86.0195H132.445V68.7188H138.611C143.821 68.7188 147 71.9689 147 77.3457ZM143.415 77.3457C143.415 73.4983 141.694 71.8018 138.42 71.8018H136.03V82.9375H138.396C141.694 82.9374 143.415 81.2167 143.415 77.3457Z" fill="white"/>
</svg>
