<svg width="939" height="599" viewBox="0 0 939 599" fill="none" xmlns="http://www.w3.org/2000/svg">
<rect width="938.611" height="598.769" fill="#B90E0A"/>
<path d="M818.118 542.104C790.293 542.104 773.308 520.964 773.308 491.512C773.308 461.7 791.015 440.74 817.756 440.74C838.716 440.74 854.255 453.027 856.784 471.637H841.245C839.077 462.603 831.127 454.472 818.118 454.472C800.592 454.472 788.847 468.927 788.847 490.97C788.847 513.736 800.23 528.191 818.118 528.191C829.682 528.191 838.535 522.048 841.245 511.207H856.784C854.255 528.733 839.981 542.104 818.118 542.104Z" fill="white"/>
<path d="M737.708 540.145V442.034H753.247V540.145H737.708ZM745.478 425.772C739.515 425.772 734.637 421.255 734.637 415.473C734.637 409.691 739.515 405.174 745.478 405.174C751.44 405.174 756.5 409.691 756.5 415.473C756.5 421.255 751.44 425.772 745.478 425.772Z" fill="white"/>
<path d="M717.656 442.033V455.042H697.058V511.957C697.058 524.605 703.202 526.593 709.887 526.593C712.778 526.593 716.753 526.412 719.102 526.231V540.686C716.753 541.047 712.778 541.409 708.261 541.409C695.252 541.409 681.339 533.278 681.339 515.932V455.042H666.523V442.033H681.339V418.544H697.058V442.033H717.656Z" fill="white"/>
<path d="M613.751 542.104C585.383 542.104 567.857 522.048 567.857 491.874C567.857 461.7 585.564 440.74 612.305 440.74C632.903 440.74 654.585 453.388 654.585 489.706V496.21H583.396C584.118 516.989 596.224 528.372 613.751 528.372C625.495 528.372 632.903 523.313 636.517 517.169H653.14C648.442 531.985 633.987 542.104 613.751 542.104ZM583.576 483.02H638.866C638.866 466.578 628.386 454.472 612.305 454.472C595.321 454.472 584.48 467.843 583.576 483.02Z" fill="white"/>
<path d="M484.03 481.14V540.043H468.491V409.228H484.03V457.29H485.295C489.812 447.171 498.665 440.667 514.204 440.667C534.26 440.667 547.631 452.592 547.631 477.707V540.043H532.092V478.791C532.092 463.433 523.6 454.579 509.506 454.579C494.871 454.579 484.03 464.156 484.03 481.14Z" fill="white"/>
<path d="M446.26 442.033V455.042H425.662V511.957C425.662 524.605 431.806 526.593 438.491 526.593C441.382 526.593 445.357 526.412 447.706 526.231V540.686C445.357 541.047 441.382 541.409 436.865 541.409C423.855 541.409 409.943 533.278 409.943 515.932V455.042H395.127V442.033H409.943V418.544H425.662V442.033H446.26Z" fill="white"/>
<path d="M366.227 467.481C364.058 459.351 357.915 453.93 346.351 453.93C334.246 453.93 325.573 460.435 325.573 468.746C325.573 475.251 330.813 479.768 342.376 482.478L357.012 486.092C374.538 490.248 383.211 498.92 383.211 512.652C383.211 529.637 369.298 542.104 344.725 542.104C322.682 542.104 309.492 532.347 306.962 514.459H323.224C325.031 524.035 332.077 528.552 344.364 528.552C358.277 528.552 367.13 522.771 367.13 513.556C367.13 506.69 362.252 501.992 351.049 499.462L336.233 496.029C319.068 492.054 310.034 482.659 310.034 469.65C310.034 452.846 324.669 440.74 346.351 440.74C366.588 440.74 379.416 451.581 381.404 467.481H366.227Z" fill="white"/>
<path d="M250.59 542.104C222.223 542.104 204.697 522.048 204.697 491.874C204.697 461.7 222.404 440.74 249.145 440.74C269.743 440.74 291.425 453.388 291.425 489.706V496.21H220.236C220.958 516.989 233.064 528.372 250.59 528.372C262.335 528.372 269.743 523.313 273.357 517.169H289.979C285.282 531.985 270.827 542.104 250.59 542.104ZM220.416 483.02H275.705C275.705 466.578 265.226 454.472 249.145 454.472C232.161 454.472 221.32 467.843 220.416 483.02Z" fill="white"/>
<path d="M97.9068 540.043H80.9225L128.804 409.228H145.969L193.85 540.043H176.685L163.676 503.183H111.097L97.9068 540.043ZM115.975 488.909H158.616L137.838 430.368H136.754L115.975 488.909Z" fill="white"/>
<path d="M162.861 65.8507C170.28 64.67 187.797 63.4599 198.516 68.0646C211.914 73.8206 213.354 75.2874 219.111 81.8182C224.869 88.349 230.406 99.0864 239.153 125.431C245.271 143.857 268.862 205.351 280.271 237.987L339.848 65.8507L354.237 65.8507L274.854 294.099L231.417 184.361L193.399 294.099L120.867 112.269C120.867 112.269 111.301 87.8415 103.124 79.6597C94.9455 71.4843 84.9121 69.7948 80.9225 69.9741V65.8507C88.3413 64.67 105.859 63.4599 116.577 68.0646C129.975 73.8206 131.415 75.2874 137.172 81.8182C142.93 88.349 148.467 99.0864 157.214 125.431C164.212 146.507 187.868 208.242 198.248 237.987L223.338 164.105L211.269 133.661C211.269 133.661 194.465 89.0588 185.062 79.6597C176.884 71.4843 166.851 69.7948 162.861 69.9741V65.8507Z" fill="white"/>
<path d="M740.469 65.6486C773.708 65.6498 796.079 75.5813 818.889 95.4263C841.931 115.274 853.458 142.964 853.458 178.505C853.457 201.349 848.619 221.537 838.944 239.075C829.266 256.383 814.865 269.893 795.74 279.586C776.847 289.277 767.94 292.687 740.469 294.122H695.436V131.627C695.436 93.4682 692.576 88.8718 684.269 80.5515C675.96 72.2289 665.765 70.509 661.711 70.6914V66.4938C664.52 66.0458 668.785 65.7842 673.581 65.7331L740.469 65.6486ZM781.704 93.3415C761.497 85.1354 740.848 88.0445 723.339 88.0452V277.501H740.469C757.512 277.501 768.116 277.856 781.704 269.556C795.528 261.018 806.357 249.12 814.191 233.891C822.026 218.428 825.949 200.425 825.949 179.885C825.949 159.809 822.025 142.046 814.191 126.584C806.588 111.122 796.994 100.824 781.704 93.3415Z" fill="white"/>
<path d="M498.781 65.6486C520.37 126.394 532.008 160.454 553.597 221.2L557.979 233.333L614.123 65.6486L643.368 65.7015V230.416C643.369 267.998 646.19 272.528 654.388 280.723C662.586 288.918 672.646 290.613 676.647 290.433V294.57C669.207 295.753 651.444 296.182 640.898 292.347C630.351 288.512 625.824 285.917 620.244 278.554C614.973 271.592 616.309 247.115 616.309 219.286V103.802L552.185 289.657L552.159 289.596L550.518 294.402L547.58 285.018L541.077 265.43L527.093 225.583C526.966 225.224 509.012 174.667 498.587 144.646L498.574 293.908H498.53V293.935L484.046 293.882L484.059 65.6486H498.781Z" fill="white"/>
<path d="M398.893 297.075C384.179 297.075 371.738 293.617 361.568 286.7C351.399 279.568 343.717 270.057 338.524 258.17C333.331 246.066 330.735 232.557 330.735 217.643C330.735 202.945 333.331 189.545 338.524 177.441C343.717 165.337 351.182 155.827 360.919 148.91C370.872 141.777 382.448 138.211 395.647 138.211C417.501 138.211 433.729 144.371 444.331 156.691C455.15 168.795 460.559 186.411 460.559 209.538V222.506H355.366C355.366 240.662 358.809 257.249 366.598 268.704C374.388 280.16 388.778 284.107 398.947 284.107C409.117 284.107 417.664 281.945 424.588 277.622C431.728 273.299 438.327 266.815 444.386 258.17H459.91L457.314 263.033C450.173 274.921 441.843 283.566 432.322 288.97C422.802 294.373 411.659 297.075 398.893 297.075ZM429.726 209.538C429.726 190.517 426.913 176.036 421.287 166.093C415.662 156.151 407.115 151.18 395.647 151.18C389.156 151.18 381.516 153.212 373.976 158.961C368.783 163.932 366.598 166.093 361.568 176.846C358.755 185.708 355.366 198.515 355.366 209.538H429.726Z" fill="white"/>
<path d="M857.704 347.965L857.704 364.148L80.9225 364.148L80.9225 347.965L857.704 347.965Z" fill="white"/>
</svg>
