<svg width="160" height="120" viewBox="0 0 160 120" fill="none" xmlns="http://www.w3.org/2000/svg">
<rect width="160" height="120" fill="white"/>
<path d="M46.4434 26.4284C57.8798 20.9838 73.5841 32.4093 80.0067 38.8026C81.8714 40.5591 84.979 38.8026 101.139 30.1406C117.299 21.4786 116.678 26.4284 123.515 30.1406C130.352 33.8528 129.109 38.8026 134.081 58.6012C139.053 78.3998 122.893 75.3064 108.598 67.8819C94.3021 60.4573 76.8989 61.6948 78.142 85.2057C79.3851 108.717 66.3326 87.6805 40.8493 79.6373C15.366 71.5941 28.4186 72.2128 27.797 52.4141C27.1755 32.6154 32.1478 33.2342 46.4434 26.4284Z" fill="#A789DF"/>
</svg>
